<svg xmlns="http://www.w3.org/2000/svg" width="500" height="500" viewBox="0 0 500 500"><path fill="#FFF" d="M250 0C111.928 0 0 111.927 0 250c0 138.077 111.927 250 250 250 138.073 0 250-111.923 250-250C500 111.928 388.073 0 250 0zm0 458.943C134.79 458.943 41.06 365.21 41.06 250c0-115.207 93.73-208.94 208.94-208.94S458.94 134.793 458.94 250c0 115.21-93.73 208.943-208.94 208.943z"/><path fill="#FFF" d="M404.462 201.172c-.028-.195-.076-.382-.11-.577-.064-.374-.134-.748-.23-1.114-.058-.22-.14-.43-.207-.64-.106-.32-.212-.65-.342-.97-.09-.22-.196-.43-.297-.65-.14-.3-.285-.59-.452-.87-.122-.21-.25-.41-.377-.62-.18-.27-.362-.54-.562-.8-.146-.19-.3-.39-.454-.57-.21-.24-.43-.48-.66-.71-.17-.18-.34-.35-.53-.52-.24-.22-.49-.43-.75-.63-.2-.15-.39-.31-.6-.46-.08-.05-.14-.11-.22-.16l-141.29-94.2c-4.46-2.97-10.27-2.97-14.74 0l-141.3 94.2c-.07.05-.14.116-.22.165-.2.146-.4.3-.59.456-.26.2-.51.42-.75.63-.18.165-.35.34-.53.52-.23.23-.45.475-.65.718-.16.19-.31.385-.46.58-.19.26-.38.53-.55.805-.13.2-.26.4-.38.61-.16.288-.31.58-.45.88-.1.21-.21.43-.292.65-.13.32-.24.644-.34.97-.07.21-.15.42-.21.64-.1.368-.16.74-.23 1.116-.036.19-.08.38-.11.573-.08.57-.123 1.147-.123 1.733v94.19c0 .59.04 1.166.12 1.74.025.19.074.386.11.57.07.377.13.75.23 1.117.06.22.14.43.21.643.1.32.21.65.34.97.09.224.19.435.29.647.143.3.29.59.45.884.123.205.25.407.383.61.17.277.36.546.553.807.144.207.3.39.46.58.205.24.424.486.655.714.17.17.34.35.53.52.24.22.49.43.75.63.19.153.39.31.594.45.08.05.147.115.22.16l141.296 94.2c2.23 1.488 4.807 2.237 7.37 2.237 2.57 0 5.14-.75 7.37-2.24l141.3-94.19c.072-.05.14-.112.22-.162.205-.144.4-.3.6-.453.256-.2.51-.414.752-.635.18-.16.35-.34.52-.52.238-.23.458-.472.67-.72.155-.183.31-.37.455-.573.2-.26.387-.53.566-.81.12-.206.25-.408.37-.61.167-.295.31-.587.45-.887.1-.213.21-.424.3-.65.13-.32.236-.65.343-.97.066-.21.15-.42.204-.64.1-.364.17-.74.234-1.11.03-.19.08-.38.11-.57.07-.58.117-1.156.117-1.74v-94.2c0-.587-.042-1.164-.115-1.73zm-141.176-67.64l104.088 69.388-46.493 31.103-57.59-38.527v-61.963zm-26.57 0v61.964l-57.593 38.527-46.497-31.103 104.09-69.387zm-114.726 94.24L155.228 250l-33.238 22.233V227.77zm114.725 138.7l-104.088-69.39 46.497-31.093 57.592 38.52v61.96zM250 281.43L203.014 250 250 218.574l46.986 31.428L250 281.432zm13.286 85.04v-61.963l57.595-38.52 46.5 31.093-104.09 69.388zm114.724-94.238L344.777 250l33.233-22.23v44.464z"/></svg>