<?xml version="1.0" encoding="utf-8"?>
<!-- Generated by IcoMoon.io -->
<!DOCTYPE svg PUBLIC "-//W3C//DTD SVG 1.1//EN" "http://www.w3.org/Graphics/SVG/1.1/DTD/svg11.dtd">
<svg version="1.1" xmlns="http://www.w3.org/2000/svg" xmlns:xlink="http://www.w3.org/1999/xlink" width="640" height="640" viewBox="0 0 640 640"><g id="icomoon-ignore">
</g>
<path fill="#FFFFFF" d="M320 12.8c-169.696 0-307.232 137.536-307.232 307.2 0 169.696 137.536 307.232 307.232 307.232 169.632 0 307.2-137.536 307.2-307.232 0-169.664-137.568-307.2-307.2-307.2zM348.672 123.712c29.952 0 38.752 17.376 38.752 37.248 0 24.8-19.84 47.744-53.728 47.744-28.352 0-41.856-14.24-41.024-37.824 0-19.872 16.608-47.168 56-47.168zM271.936 504c-20.48 0-35.424-12.448-21.12-67.008l23.456-96.8c4.064-15.488 4.736-21.696 0-21.696-6.112 0-32.704 10.688-48.384 21.248l-10.208-16.736c49.76-41.568 106.976-65.952 131.456-65.952 20.48 0 23.872 24.192 13.664 61.44l-26.88 101.76c-4.768 17.984-2.72 24.192 2.048 24.192 6.144 0 26.24-7.424 46.016-23.008l11.584 15.552c-48.416 48.384-101.184 67.008-121.632 67.008z"></path>
</svg>
